<svg width="9" height="14" viewBox="0 0 9 14" fill="none" xmlns="http://www.w3.org/2000/svg">
<path d="M3.38379 9.39648C3.39551 8.69922 3.47461 8.14844 3.62109 7.74414C3.76758 7.33984 4.06641 6.8916 4.51758 6.39941L5.66895 5.21289C6.16113 4.65625 6.40723 4.05859 6.40723 3.41992C6.40723 2.80469 6.24609 2.32422 5.92383 1.97852C5.60156 1.62695 5.13281 1.45117 4.51758 1.45117C3.91992 1.45117 3.43945 1.60938 3.07617 1.92578C2.71289 2.24219 2.53125 2.66699 2.53125 3.2002H0.905273C0.916992 2.25098 1.25391 1.48633 1.91602 0.90625C2.58398 0.320312 3.45117 0.0273438 4.51758 0.0273438C5.625 0.0273438 6.48633 0.326172 7.10156 0.923828C7.72266 1.51562 8.0332 2.33008 8.0332 3.36719C8.0332 4.39258 7.55859 5.40332 6.60938 6.39941L5.65137 7.34863C5.22363 7.82324 5.00977 8.50586 5.00977 9.39648H3.38379ZM3.31348 12.1826C3.31348 11.9189 3.39258 11.6992 3.55078 11.5234C3.71484 11.3418 3.95508 11.251 4.27148 11.251C4.58789 11.251 4.82812 11.3418 4.99219 11.5234C5.15625 11.6992 5.23828 11.9189 5.23828 12.1826C5.23828 12.4463 5.15625 12.666 4.99219 12.8418C4.82812 13.0117 4.58789 13.0967 4.27148 13.0967C3.95508 13.0967 3.71484 13.0117 3.55078 12.8418C3.39258 12.666 3.31348 12.4463 3.31348 12.1826Z" fill="#2196F3"/>
</svg>
